<svg width="21" height="20" viewBox="0 0 21 20" fill="none" xmlns="http://www.w3.org/2000/svg">
<path d="M20.0029 10C20.0029 8.42857 18.8779 7.14286 17.5029 7.14286V2.85714C17.5029 1.28571 16.3779 0 15.0029 0H5.00293C3.62793 0 2.50293 1.28571 2.50293 2.85714V7.14286C1.12793 7.14286 0.00292969 8.42857 0.00292969 10V17.1429H1.66543L2.50293 20H3.75293L4.59043 17.1429H15.4279L16.2529 20H17.5029L18.3404 17.1429H20.0029V10ZM15.0029 7.14286H11.2529V2.85714H15.0029V7.14286ZM5.00293 2.85714H8.75293V7.14286H5.00293V2.85714ZM2.50293 10H17.5029V14.2857H2.50293V10Z" fill="#FDFFFE" fill-opacity="0.8"/>
</svg>
