<svg width="20" height="20" viewBox="0 0 20 20" fill="none" xmlns="http://www.w3.org/2000/svg">
<path fill-rule="evenodd" clip-rule="evenodd" d="M15.9971 2.66667H17.9971C18.5275 2.66667 19.0362 2.87738 19.4113 3.25245C19.7864 3.62753 19.9971 4.13623 19.9971 4.66667V18C19.9971 18.5304 19.7864 19.0391 19.4113 19.4142C19.0362 19.7893 18.5275 20 17.9971 20H1.99707C1.46664 20 0.957929 19.7893 0.582857 19.4142C0.207784 19.0391 -0.00292969 18.5304 -0.00292969 18L-0.00292969 4.66667C-0.00292969 4.13623 0.207784 3.62753 0.582857 3.25245C0.957929 2.87738 1.46664 2.66667 1.99707 2.66667H3.99707V0H5.3304V2.66667H14.6637V0H15.9971V2.66667ZM7.99707 10.6667H3.99707V9.33333H7.99707V10.6667ZM15.9971 9.33333H11.9971V10.6667H15.9971V9.33333ZM7.99707 14.6667H3.99707V13.3333H7.99707V14.6667ZM11.9971 14.6667H15.9971V13.3333H11.9971V14.6667Z" fill="#FDFFFE" fill-opacity="0.8"/>
</svg>
