<svg width="30" height="30" viewBox="0 0 30 30" fill="none" xmlns="http://www.w3.org/2000/svg">
<path fill-rule="evenodd" clip-rule="evenodd" d="M24 4H27C27.7956 4 28.5587 4.31607 29.1213 4.87868C29.6839 5.44129 30 6.20435 30 7V27C30 27.7956 29.6839 28.5587 29.1213 29.1213C28.5587 29.6839 27.7956 30 27 30H3C2.20435 30 1.44129 29.6839 0.87868 29.1213C0.316071 28.5587 0 27.7956 0 27L0 7C0 6.20435 0.316071 5.44129 0.87868 4.87868C1.44129 4.31607 2.20435 4 3 4H6V0H8V4H22V0H24V4ZM12 16H6V14H12V16ZM24 14H18V16H24V14ZM12 22H6V20H12V22ZM18 22H24V20H18V22Z" fill="#1572A1"/>
</svg>
