<svg width="24" height="24" viewBox="0 0 24 24" fill="none" xmlns="http://www.w3.org/2000/svg">
<path d="M15.634 18.1538V18.9231C15.634 19.7391 15.2512 20.5218 14.5698 21.0988C13.8884 21.6758 12.9643 22 12.0007 22C11.0371 22 10.1129 21.6758 9.43156 21.0988C8.75019 20.5218 8.3674 19.7391 8.3674 18.9231V18.1538M21.747 16.588C20.2891 15.0769 19.2599 14.3077 19.2599 10.1418C19.2599 6.32692 16.9595 4.96779 15.0663 4.30769C14.8148 4.22019 14.578 4.01923 14.5014 3.80048C14.1693 2.84327 13.2383 2 12.0007 2C10.7631 2 9.8315 2.84375 9.5028 3.80144C9.42616 4.0226 9.18943 4.22019 8.93793 4.30769C7.04238 4.96875 4.74433 6.32308 4.74433 10.1418C4.74149 14.3077 3.71225 15.0769 2.2544 16.588C1.65036 17.2139 2.17946 18.1538 3.23595 18.1538H20.7711C21.8219 18.1538 22.3476 17.2111 21.747 16.588Z" stroke="#525252" stroke-opacity="0.8" stroke-width="2.5" stroke-linecap="round" stroke-linejoin="round"/>
</svg>
