<svg width="20" height="20" viewBox="0 0 20 20" fill="none" xmlns="http://www.w3.org/2000/svg">
<path d="M17.1875 0C17.5568 0 17.9226 0.0581834 18.2638 0.171228C18.605 0.284273 18.9151 0.449965 19.1762 0.658845C19.4374 0.867725 19.6446 1.1157 19.7859 1.38862C19.9273 1.66153 20 1.95404 20 2.24944V17.7506C20 18.046 19.9273 18.3385 19.7859 18.6114C19.6446 18.8843 19.4374 19.1323 19.1762 19.3412C18.9151 19.55 18.605 19.7157 18.2638 19.8288C17.9226 19.9418 17.5568 20 17.1875 20H2.8125C2.44316 20 2.07743 19.9418 1.7362 19.8288C1.39497 19.7157 1.08493 19.55 0.823762 19.3412C0.562598 19.1323 0.35543 18.8843 0.214089 18.6114C0.0727472 18.3385 2.12484e-08 18.046 2.12484e-08 17.7506V2.24944C-8.75273e-05 1.67945 0.270369 1.1307 0.756711 0.714068C1.24305 0.29744 1.90901 0.0440111 2.62 0.00499886L2.8125 0H17.1875ZM18.125 13.9965H1.875V17.7506C1.875 18.1645 2.295 18.5004 2.8125 18.5004H17.1875C17.4361 18.5004 17.6746 18.4214 17.8504 18.2808C18.0262 18.1401 18.125 17.9494 18.125 17.7506V13.9965ZM4.68875 15.4961H15.3125C15.55 15.4962 15.7787 15.5684 15.9522 15.698C16.1258 15.8277 16.2313 16.0053 16.2475 16.1948C16.2637 16.3844 16.1894 16.5718 16.0395 16.7191C15.8896 16.8665 15.6753 16.9629 15.44 16.9888L15.3125 16.9958H4.68875C4.45133 16.9954 4.22289 16.9231 4.04957 16.7933C3.87625 16.6635 3.77094 16.486 3.75492 16.2965C3.73889 16.1071 3.81334 15.9198 3.96323 15.7726C4.11312 15.6253 4.32729 15.529 4.5625 15.5031L4.68875 15.4961ZM17.1875 1.49963H2.8125L2.685 1.50662C2.46056 1.53127 2.25486 1.62008 2.10596 1.75663C1.95705 1.89318 1.87501 2.06825 1.875 2.24944V12.4969H5V10.2424C5.00013 9.93323 5.14359 9.63504 5.40264 9.40551C5.66168 9.17598 6.01792 9.03141 6.4025 8.99975L6.5625 8.99275H13.4375C14.2463 8.99275 14.9125 9.48463 14.9913 10.1155L15 10.2424V12.4969H18.125V2.24944C18.125 2.05058 18.0262 1.85986 17.8504 1.71924C17.6746 1.57862 17.4361 1.49963 17.1875 1.49963ZM10 2.99525C10.8288 2.99525 11.6237 3.25858 12.2097 3.7273C12.7958 4.19602 13.125 4.83175 13.125 5.49463C13.125 6.1575 12.7958 6.79323 12.2097 7.26195C11.6237 7.73068 10.8288 7.994 10 7.994C9.1712 7.994 8.37634 7.73068 7.79029 7.26195C7.20424 6.79323 6.875 6.1575 6.875 5.49463C6.875 4.83175 7.20424 4.19602 7.79029 3.7273C8.37634 3.25858 9.1712 2.99525 10 2.99525Z" fill="#FDFFFE" fill-opacity="0.8"/>
</svg>
