<svg width="30" height="30" viewBox="0 0 30 30" fill="none" xmlns="http://www.w3.org/2000/svg">
<path d="M25.7812 0C26.3353 0 26.8839 0.0872752 27.3957 0.256842C27.9075 0.42641 28.3726 0.674948 28.7644 0.988268C29.1561 1.30159 29.4669 1.67355 29.6789 2.08292C29.8909 2.49229 30 2.93106 30 3.37416V26.6258C30 27.0689 29.8909 27.5077 29.6789 27.9171C29.4669 28.3264 29.1561 28.6984 28.7644 29.0117C28.3726 29.3251 27.9075 29.5736 27.3957 29.7432C26.8839 29.9127 26.3353 30 25.7812 30H4.21875C3.66474 30 3.11615 29.9127 2.6043 29.7432C2.09246 29.5736 1.62739 29.3251 1.23564 29.0117C0.843896 28.6984 0.533145 28.3264 0.321133 27.9171C0.109121 27.5077 3.18726e-08 27.0689 3.18726e-08 26.6258V3.37416C-0.000131291 2.51918 0.405554 1.69604 1.13507 1.0711C1.86458 0.44616 2.86352 0.0660166 3.93 0.0074983L4.21875 0H25.7812ZM27.1875 20.9948H2.8125V26.6258C2.8125 27.2467 3.4425 27.7506 4.21875 27.7506H25.7812C26.1542 27.7506 26.5119 27.6321 26.7756 27.4211C27.0393 27.2102 27.1875 26.9241 27.1875 26.6258V20.9948ZM7.03312 23.2442H22.9688C23.325 23.2443 23.668 23.3525 23.9284 23.5471C24.1887 23.7416 24.347 24.0079 24.3713 24.2922C24.3956 24.5765 24.284 24.8576 24.0592 25.0787C23.8343 25.2997 23.513 25.4443 23.16 25.4831L22.9688 25.4936H7.03312C6.67699 25.4932 6.33434 25.3846 6.07436 25.19C5.81437 24.9953 5.65641 24.729 5.63237 24.4448C5.60834 24.1606 5.72001 23.8797 5.94485 23.6588C6.16969 23.4379 6.49094 23.2935 6.84375 23.2547L7.03312 23.2442ZM25.7812 2.24944H4.21875L4.0275 2.25994C3.69084 2.2969 3.3823 2.43011 3.15894 2.63495C2.93558 2.83978 2.81251 3.10237 2.8125 3.37416V18.7453H7.5V15.3637C7.5002 14.8998 7.71538 14.4526 8.10395 14.1083C8.49252 13.764 9.02689 13.5471 9.60375 13.4996L9.84375 13.4891H20.1562C21.3694 13.4891 22.3688 14.2269 22.4869 15.1732L22.5 15.3637V18.7453H27.1875V3.37416C27.1875 3.07586 27.0393 2.78979 26.7756 2.57886C26.5119 2.36793 26.1542 2.24944 25.7812 2.24944ZM15 4.49288C16.2432 4.49288 17.4355 4.88787 18.3146 5.59095C19.1936 6.29404 19.6875 7.24763 19.6875 8.24194C19.6875 9.23625 19.1936 10.1898 18.3146 10.8929C17.4355 11.596 16.2432 11.991 15 11.991C13.7568 11.991 12.5645 11.596 11.6854 10.8929C10.8064 10.1898 10.3125 9.23625 10.3125 8.24194C10.3125 7.24763 10.8064 6.29404 11.6854 5.59095C12.5645 4.88787 13.7568 4.49288 15 4.49288Z" fill="#1572A1"/>
</svg>
