<svg width="20" height="20" viewBox="0 0 20 20" fill="none" xmlns="http://www.w3.org/2000/svg">
<path d="M4.48 1.27626e-05C3.61364 1.27626e-05 2.83455 0.407705 2.44636 1.06386L2.16636 1.53847H1.81818C0.815455 1.53847 0 2.22847 0 3.07693V6.15385H0.909091V18.4615C0.909091 19.31 1.72455 20 2.72727 20H17.2727C18.2755 20 19.0909 19.31 19.0909 18.4615V6.15385H20V3.07693C20 2.22847 19.1845 1.53847 18.1818 1.53847H17.8336L17.5536 1.06386C17.3661 0.743374 17.0762 0.473801 16.7167 0.28575C16.3572 0.0976994 15.9426 -0.00129351 15.52 1.27626e-05H4.48ZM4.48 1.53847H15.52C15.6936 1.53847 15.85 1.61924 15.9273 1.75001L16.7118 3.07693H18.1818V4.61539H1.81818V3.07693H3.28818L4.07273 1.75001C4.11046 1.68606 4.16862 1.63234 4.24061 1.59495C4.3126 1.55756 4.39553 1.53799 4.48 1.53847ZM2.72727 6.15385H17.2727V18.4615H2.72727V6.15385ZM9.09091 8.46154V11.5385H5.45455V13.0769H9.09091V16.1538H10.9091V13.0769H14.5455V11.5385H10.9091V8.46154H9.09091Z" fill="#FDFFFE" fill-opacity="0.8"/>
</svg>
