<svg width="21" height="20" viewBox="0 0 21 20" fill="none" xmlns="http://www.w3.org/2000/svg">
<path fill-rule="evenodd" clip-rule="evenodd" d="M10.0029 19C14.9734 19 19.0029 14.9705 19.0029 9.99998C19.0029 5.02949 14.9734 0.999998 10.0029 0.999998C5.03243 0.999998 1.00293 5.02949 1.00293 9.99998C1.00293 14.9705 5.03243 19 10.0029 19ZM10.0029 20C15.5259 20 20.0029 15.523 20.0029 9.99998C20.0029 4.47699 15.5259 0 10.0029 0C4.47993 0 0.00292969 4.47699 0.00292969 9.99998C0.00292969 15.523 4.47993 20 10.0029 20Z" fill="#FDFFFE" fill-opacity="0.8"/>
<path d="M4.00293 15.815C4.00293 15.2985 4.38893 14.862 4.90293 14.805C8.76043 14.378 11.2629 14.4165 15.1119 14.8145C15.3041 14.8347 15.4863 14.9104 15.6362 15.0324C15.7861 15.1544 15.8972 15.3175 15.9559 15.5016C16.0147 15.6857 16.0185 15.8829 15.967 16.0692C15.9155 16.2555 15.8109 16.4227 15.6659 16.5505C11.1234 20.51 8.52743 20.4555 4.32293 16.5545C4.11793 16.3645 4.00293 16.0945 4.00293 15.8155V15.815Z" fill="#FDFFFE" fill-opacity="0.8"/>
<path fill-rule="evenodd" clip-rule="evenodd" d="M15.0604 15.3115C11.2419 14.9165 8.77543 14.8795 4.95743 15.302C4.83175 15.3167 4.71589 15.3771 4.63203 15.4719C4.54817 15.5666 4.50221 15.689 4.50293 15.8155C4.50293 15.9585 4.56243 16.094 4.66293 16.188C6.74693 18.121 8.32593 18.9945 9.86943 19C11.4184 19.0055 13.0824 18.139 15.3374 16.174C15.4091 16.1102 15.4606 16.027 15.4859 15.9345C15.5111 15.842 15.5089 15.7441 15.4796 15.6528C15.4503 15.5615 15.395 15.4807 15.3206 15.4202C15.2462 15.3597 15.1558 15.3221 15.0604 15.312V15.3115ZM4.84793 14.308C8.74593 13.8765 11.2849 13.9155 15.1639 14.317C15.4531 14.3472 15.7272 14.461 15.9526 14.6446C16.1781 14.8281 16.3451 15.0734 16.4333 15.3505C16.5215 15.6275 16.527 15.9242 16.4491 16.2043C16.3713 16.4844 16.2134 16.7357 15.9949 16.9275C13.7074 18.9215 11.8024 20.0075 9.86643 20C7.92493 19.993 6.10393 18.8885 3.98343 16.921C3.83161 16.7796 3.71058 16.6084 3.6279 16.4181C3.54523 16.2278 3.50269 16.0225 3.50293 15.815C3.5022 15.4422 3.63903 15.0823 3.88721 14.8041C4.1354 14.5259 4.47748 14.3491 4.84793 14.3075V14.308Z" fill="#FDFFFE" fill-opacity="0.8"/>
<path d="M14.0029 7.99999C14.0029 9.06086 13.5815 10.0783 12.8314 10.8284C12.0812 11.5786 11.0638 12 10.0029 12C8.94206 12 7.92465 11.5786 7.1745 10.8284C6.42436 10.0783 6.00293 9.06086 6.00293 7.99999C6.00293 6.93913 6.42436 5.92171 7.1745 5.17157C7.92465 4.42143 8.94206 4 10.0029 4C11.0638 4 12.0812 4.42143 12.8314 5.17157C13.5815 5.92171 14.0029 6.93913 14.0029 7.99999Z" fill="#FDFFFE" fill-opacity="0.8"/>
<path fill-rule="evenodd" clip-rule="evenodd" d="M10.0029 11C10.7986 11 11.5616 10.6839 12.1243 10.1213C12.6869 9.5587 13.0029 8.79564 13.0029 7.99999C13.0029 7.20434 12.6869 6.44128 12.1243 5.87868C11.5616 5.31607 10.7986 5 10.0029 5C9.20728 5 8.44422 5.31607 7.88161 5.87868C7.319 6.44128 7.00293 7.20434 7.00293 7.99999C7.00293 8.79564 7.319 9.5587 7.88161 10.1213C8.44422 10.6839 9.20728 11 10.0029 11ZM10.0029 12C11.0638 12 12.0812 11.5786 12.8314 10.8284C13.5815 10.0783 14.0029 9.06086 14.0029 7.99999C14.0029 6.93913 13.5815 5.92171 12.8314 5.17157C12.0812 4.42143 11.0638 4 10.0029 4C8.94206 4 7.92465 4.42143 7.1745 5.17157C6.42436 5.92171 6.00293 6.93913 6.00293 7.99999C6.00293 9.06086 6.42436 10.0783 7.1745 10.8284C7.92465 11.5786 8.94206 12 10.0029 12Z" fill="#FDFFFE" fill-opacity="0.8"/>
</svg>
