<svg width="21" height="20" viewBox="0 0 21 20" fill="none" xmlns="http://www.w3.org/2000/svg">
<path d="M18.1847 2.14286H15.4575V1.42857C15.4575 1.04969 15.2659 0.686328 14.9249 0.418419C14.584 0.15051 14.1215 0 13.6393 0H6.36657C5.88435 0 5.42189 0.15051 5.08092 0.418419C4.73994 0.686328 4.54838 1.04969 4.54838 1.42857V2.14286H1.82111C1.3389 2.14286 0.876438 2.29337 0.535463 2.56128C0.194488 2.82919 0.00292969 3.19255 0.00292969 3.57143V18.5714C0.00292969 18.9503 0.194488 19.3137 0.535463 19.5816C0.876438 19.8495 1.3389 20 1.82111 20H18.1847C18.667 20 19.1294 19.8495 19.4704 19.5816C19.8114 19.3137 20.0029 18.9503 20.0029 18.5714V3.57143C20.0029 3.19255 19.8114 2.82919 19.4704 2.56128C19.1294 2.29337 18.667 2.14286 18.1847 2.14286ZM6.36657 1.42857H13.6393V4.28571H6.36657V1.42857ZM18.1847 18.5714H1.82111V3.57143H4.54838V5.71429H15.4575V3.57143H18.1847V18.5714Z" fill="#FDFFFE" fill-opacity="0.8"/>
</svg>
