<svg width="15" height="15" viewBox="0 0 15 15" fill="none" xmlns="http://www.w3.org/2000/svg">
<path d="M6.04064 4.68277e-08C7.18236 -0.000142075 8.30076 0.323223 9.26624 0.932624C10.2317 1.54203 11.0047 2.41252 11.4957 3.44323C11.9867 4.47394 12.1756 5.62268 12.0405 6.75633C11.8116 8.67616 11.7709 10.8873 13.1381 12.2544L14.8155 13.9317C14.9276 14.043 14.9934 14.1928 14.9995 14.3507C15.0057 14.5086 14.9518 14.6629 14.8487 14.7827C14.7456 14.9025 14.601 14.9788 14.4439 14.9962C14.2868 15.0136 14.129 14.9709 14.0022 14.8766L13.9322 14.8158L11.8898 12.7739C10.7295 11.6139 8.87082 11.6257 7.26397 11.9577C6.31698 12.1533 5.33686 12.1188 4.40598 11.857C3.4751 11.5952 2.62065 11.1139 1.91445 10.4533C1.20825 9.79277 0.670932 8.97237 0.347643 8.06106C0.024355 7.14975 -0.0754536 6.17416 0.0566053 5.21626C0.188664 4.25837 0.548732 3.34617 1.10655 2.55633C1.66437 1.76648 2.40363 1.12206 3.26223 0.67723C4.12082 0.232398 5.07365 0.000148382 6.04064 4.68277e-08ZM6.04064 1.24993C5.4114 1.24993 4.78832 1.37386 4.20698 1.61465C3.62564 1.85544 3.09742 2.20837 2.65248 2.65329C2.20754 3.09821 1.85459 3.62641 1.61379 4.20772C1.37299 4.78904 1.24905 5.41209 1.24905 6.04131C1.24905 6.67052 1.37299 7.29357 1.61379 7.87489C1.85459 8.45621 2.20754 8.9844 2.65248 9.42932C3.09742 9.87425 3.62564 10.2272 4.20698 10.468C4.78832 10.7088 5.4114 10.8327 6.04064 10.8327C7.31144 10.8327 8.5302 10.3279 9.4288 9.42932C10.3274 8.53077 10.8322 7.31206 10.8322 6.04131C10.8322 4.77055 10.3274 3.55185 9.4288 2.65329C8.5302 1.75473 7.31144 1.24993 6.04064 1.24993Z" fill="#525252" fill-opacity="0.3"/>
</svg>
